<?xml version="1.0" encoding="UTF-8" ?>
<svg version="1.1" width="640" height="640" xmlns="http://www.w3.org/2000/svg" shape-rendering="crispEdges">
<rect x="280" y="140" width="80" height="20" fill="#FFFFFF" />
<rect x="240" y="160" width="40" height="20" fill="#FFFFFF" />
<rect x="280" y="160" width="80" height="20" fill="#494A3F" />
<rect x="360" y="160" width="40" height="20" fill="#FFFFFF" />
<rect x="220" y="180" width="20" height="20" fill="#FFFFFF" />
<rect x="240" y="180" width="40" height="20" fill="#494A3F" />
<rect x="280" y="180" width="60" height="20" fill="#BFBFBF" />
<rect x="340" y="180" width="20" height="160" fill="#A4A18A" />
<rect x="360" y="180" width="40" height="20" fill="#494A3F" />
<rect x="400" y="180" width="20" height="20" fill="#FFFFFF" />
<rect x="200" y="200" width="20" height="40" fill="#FFFFFF" />
<rect x="220" y="200" width="20" height="40" fill="#494A3F" />
<rect x="240" y="200" width="40" height="20" fill="#BFBFBF" />
<rect x="280" y="200" width="60" height="140" fill="#A4A18A" />
<rect x="360" y="200" width="40" height="60" fill="#A4A18A" />
<rect x="400" y="200" width="20" height="40" fill="#38392E" />
<rect x="420" y="200" width="20" height="40" fill="#FFFFFF" />
<rect x="240" y="220" width="20" height="20" fill="#BFBFBF" />
<rect x="260" y="220" width="20" height="140" fill="#A4A18A" />
<rect x="180" y="240" width="20" height="80" fill="#FFFFFF" />
<rect x="200" y="240" width="20" height="80" fill="#494A3F" />
<rect x="220" y="240" width="20" height="20" fill="#BFBFBF" />
<rect x="240" y="240" width="20" height="120" fill="#A4A18A" />
<rect x="400" y="240" width="20" height="80" fill="#928F78" />
<rect x="420" y="240" width="20" height="80" fill="#38392E" />
<rect x="440" y="240" width="20" height="100" fill="#FFFFFF" />
<rect x="220" y="260" width="20" height="60" fill="#A4A18A" />
<rect x="360" y="260" width="20" height="60" fill="#6BD8EF" />
<rect x="380" y="260" width="20" height="60" fill="#A4A18A" />
<rect x="200" y="320" width="20" height="40" fill="#FFFFFF" />
<rect x="220" y="320" width="20" height="40" fill="#38392E" />
<rect x="360" y="320" width="20" height="20" fill="#A4A18A" />
<rect x="380" y="320" width="20" height="40" fill="#928F78" />
<rect x="400" y="320" width="20" height="40" fill="#38392E" />
<rect x="420" y="320" width="20" height="20" fill="#252B2A" />
<rect x="460" y="320" width="20" height="20" fill="#FFFFFF" />
<rect x="180" y="340" width="20" height="20" fill="#FFFFFF" />
<rect x="280" y="340" width="40" height="20" fill="#A4A18A" />
<rect x="320" y="340" width="60" height="20" fill="#928F78" />
<rect x="420" y="340" width="20" height="20" fill="#A4A18A" />
<rect x="440" y="340" width="40" height="20" fill="#252B2A" />
<rect x="480" y="340" width="40" height="20" fill="#FFFFFF" />
<rect x="140" y="360" width="40" height="20" fill="#FFFFFF" />
<rect x="180" y="360" width="40" height="20" fill="#252B2A" />
<rect x="220" y="360" width="20" height="20" fill="#FFFFFF" />
<rect x="240" y="360" width="40" height="20" fill="#38392E" />
<rect x="280" y="360" width="80" height="20" fill="#928F78" />
<rect x="360" y="360" width="40" height="20" fill="#38392E" />
<rect x="400" y="360" width="40" height="20" fill="#777460" />
<rect x="440" y="360" width="40" height="40" fill="#A4A18A" />
<rect x="480" y="360" width="40" height="20" fill="#252B2A" />
<rect x="520" y="360" width="20" height="20" fill="#FFFFFF" />
<rect x="120" y="380" width="20" height="20" fill="#FFFFFF" />
<rect x="140" y="380" width="40" height="20" fill="#252B2A" />
<rect x="180" y="380" width="40" height="40" fill="#A4A18A" />
<rect x="220" y="380" width="60" height="20" fill="#252B2A" />
<rect x="280" y="380" width="80" height="20" fill="#38392E" />
<rect x="360" y="380" width="20" height="40" fill="#252B2A" />
<rect x="380" y="380" width="20" height="20" fill="#777460" />
<rect x="400" y="380" width="40" height="20" fill="#A4A18A" />
<rect x="480" y="380" width="40" height="20" fill="#777460" />
<rect x="520" y="380" width="20" height="80" fill="#252B2A" />
<rect x="540" y="380" width="20" height="80" fill="#FFFFFF" />
<rect x="100" y="400" width="20" height="20" fill="#FFFFFF" />
<rect x="120" y="400" width="20" height="20" fill="#000000" />
<rect x="140" y="400" width="40" height="20" fill="#A4A18A" />
<rect x="220" y="400" width="40" height="20" fill="#777460" />
<rect x="260" y="400" width="60" height="20" fill="#252B2A" />
<rect x="320" y="400" width="40" height="20" fill="#000000" />
<rect x="380" y="400" width="40" height="20" fill="#252B2A" />
<rect x="420" y="400" width="40" height="20" fill="#A4A18A" />
<rect x="460" y="400" width="20" height="20" fill="#777460" />
<rect x="480" y="400" width="40" height="40" fill="#A4A18A" />
<rect x="80" y="420" width="20" height="80" fill="#FFFFFF" />
<rect x="100" y="420" width="20" height="80" fill="#000000" />
<rect x="120" y="420" width="40" height="60" fill="#252B2A" />
<rect x="160" y="420" width="20" height="20" fill="#A4A18A" />
<rect x="180" y="420" width="40" height="20" fill="#777460" />
<rect x="220" y="420" width="80" height="20" fill="#A4A18A" />
<rect x="300" y="420" width="60" height="20" fill="#252B2A" />
<rect x="360" y="420" width="40" height="20" fill="#000000" />
<rect x="400" y="420" width="20" height="20" fill="#252B2A" />
<rect x="420" y="420" width="20" height="20" fill="#273D3C" />
<rect x="440" y="420" width="20" height="80" fill="#252B2A" />
<rect x="460" y="420" width="20" height="40" fill="#A4A18A" />
<rect x="160" y="440" width="20" height="20" fill="#252B2A" />
<rect x="180" y="440" width="20" height="20" fill="#273D3C" />
<rect x="200" y="440" width="60" height="20" fill="#A4A18A" />
<rect x="260" y="440" width="40" height="20" fill="#777460" />
<rect x="300" y="440" width="40" height="40" fill="#A4A18A" />
<rect x="340" y="440" width="60" height="20" fill="#252B2A" />
<rect x="400" y="440" width="20" height="20" fill="#000000" />
<rect x="420" y="440" width="20" height="60" fill="#252B2A" />
<rect x="480" y="440" width="40" height="20" fill="#777460" />
<rect x="160" y="460" width="20" height="20" fill="#000000" />
<rect x="180" y="460" width="60" height="20" fill="#252B2A" />
<rect x="240" y="460" width="20" height="20" fill="#777460" />
<rect x="260" y="460" width="40" height="20" fill="#A4A18A" />
<rect x="340" y="460" width="40" height="20" fill="#777460" />
<rect x="380" y="460" width="40" height="20" fill="#252B2A" />
<rect x="460" y="460" width="20" height="20" fill="#777460" />
<rect x="480" y="460" width="20" height="20" fill="#A4A18A" />
<rect x="500" y="460" width="20" height="20" fill="#252B2A" />
<rect x="520" y="460" width="20" height="20" fill="#FFFFFF" />
<rect x="120" y="480" width="20" height="20" fill="#252B2A" />
<rect x="140" y="480" width="20" height="20" fill="#273D3C" />
<rect x="160" y="480" width="20" height="40" fill="#252B2A" />
<rect x="180" y="480" width="40" height="20" fill="#000000" />
<rect x="220" y="480" width="60" height="20" fill="#252B2A" />
<rect x="280" y="480" width="40" height="20" fill="#A4A18A" />
<rect x="320" y="480" width="20" height="20" fill="#777460" />
<rect x="340" y="480" width="40" height="40" fill="#A4A18A" />
<rect x="380" y="480" width="20" height="60" fill="#252B2A" />
<rect x="400" y="480" width="20" height="20" fill="#000000" />
<rect x="460" y="480" width="40" height="20" fill="#252B2A" />
<rect x="500" y="480" width="20" height="20" fill="#FFFFFF" />
<rect x="100" y="500" width="20" height="20" fill="#FFFFFF" />
<rect x="120" y="500" width="40" height="20" fill="#000000" />
<rect x="180" y="500" width="40" height="20" fill="#252B2A" />
<rect x="220" y="500" width="40" height="20" fill="#000000" />
<rect x="260" y="500" width="20" height="20" fill="#252B2A" />
<rect x="280" y="500" width="20" height="20" fill="#273D3C" />
<rect x="300" y="500" width="20" height="80" fill="#252B2A" />
<rect x="320" y="500" width="20" height="40" fill="#A4A18A" />
<rect x="400" y="500" width="20" height="40" fill="#FFFFFF" />
<rect x="420" y="500" width="40" height="20" fill="#000000" />
<rect x="460" y="500" width="40" height="20" fill="#FFFFFF" />
<rect x="120" y="520" width="40" height="20" fill="#FFFFFF" />
<rect x="160" y="520" width="40" height="20" fill="#000000" />
<rect x="200" y="520" width="60" height="20" fill="#252B2A" />
<rect x="260" y="520" width="20" height="20" fill="#000000" />
<rect x="280" y="520" width="20" height="60" fill="#252B2A" />
<rect x="340" y="520" width="40" height="20" fill="#777460" />
<rect x="420" y="520" width="40" height="20" fill="#FFFFFF" />
<rect x="160" y="540" width="40" height="20" fill="#FFFFFF" />
<rect x="200" y="540" width="40" height="20" fill="#000000" />
<rect x="240" y="540" width="20" height="20" fill="#273D3C" />
<rect x="260" y="540" width="20" height="20" fill="#252B2A" />
<rect x="320" y="540" width="20" height="20" fill="#777460" />
<rect x="340" y="540" width="20" height="20" fill="#A4A18A" />
<rect x="360" y="540" width="20" height="20" fill="#252B2A" />
<rect x="380" y="540" width="20" height="20" fill="#FFFFFF" />
<rect x="200" y="560" width="40" height="20" fill="#FFFFFF" />
<rect x="240" y="560" width="40" height="20" fill="#000000" />
<rect x="320" y="560" width="40" height="20" fill="#000000" />
<rect x="360" y="560" width="20" height="20" fill="#FFFFFF" />
<rect x="240" y="580" width="40" height="20" fill="#FFFFFF" />
<rect x="280" y="580" width="40" height="20" fill="#000000" />
<rect x="320" y="580" width="40" height="20" fill="#FFFFFF" />
<rect x="280" y="600" width="40" height="20" fill="#FFFFFF" />
</svg>